<?xml version="1.0" encoding="utf-8"?>
<!-- Generator: Adobe Illustrator 19.1.0, SVG Export Plug-In . SVG Version: 6.00 Build 0)  -->
<svg version="1.1" id="Layer_1" xmlns="http://www.w3.org/2000/svg" xmlns:xlink="http://www.w3.org/1999/xlink" x="0px" y="0px"
	 viewBox="0 0 20 20" style="enable-background:new 0 0 20 20;" xml:space="preserve">
<style type="text/css">
	.st0{fill:#ECF0F1;}
</style>
<g>
	<path class="st0" d="M19.4,16.7c0.2,0.4,0.2,0.9,0,1.4c-0.2,0.4-0.7,0.7-1.2,0.7H1.8c-0.5,0-0.9-0.3-1.2-0.7
		c-0.2-0.4-0.3-0.9,0-1.4L8.8,1.6C9,1.2,9.5,0.9,10,0.9c0.5,0,1,0.3,1.2,0.7L19.4,16.7z M11.5,6.7c0-0.1,0-0.2-0.1-0.2
		c-0.1-0.1-0.2-0.1-0.3-0.1H8.8c-0.1,0-0.2,0.1-0.3,0.1C8.5,6.6,8.5,6.7,8.5,6.7l0.2,4.9c0,0.1,0.2,0.2,0.4,0.2h2
		c0.2,0,0.4-0.1,0.4-0.2L11.5,6.7z M11.4,13.6c0-0.2-0.2-0.4-0.3-0.4H9c-0.2,0-0.3,0.2-0.3,0.4v2C8.6,15.8,8.8,16,9,16H11
		c0.2,0,0.3-0.2,0.3-0.4V13.6z"/>
</g>
</svg>
