<?xml version="1.0" encoding="utf-8"?>
<!-- Generator: Adobe Illustrator 19.1.0, SVG Export Plug-In . SVG Version: 6.00 Build 0)  -->
<svg version="1.1" id="Layer_1" xmlns="http://www.w3.org/2000/svg" xmlns:xlink="http://www.w3.org/1999/xlink" x="0px" y="0px"
	 viewBox="0 0 20 20" style="enable-background:new 0 0 20 20;" xml:space="preserve">
<style type="text/css">
	.st0{fill:#894B9D;}
</style>
<g>
	<path class="st0" d="M9.9,15c-0.5,0-1.1,0-1.6-0.1c-1.4,1.3-3.1,2.2-5,2.6c-0.4,0.1-0.8,0.2-1.2,0.2c-0.2,0-0.5-0.2-0.5-0.4
		c0,0,0,0,0,0c-0.1-0.3,0.1-0.4,0.3-0.6c0.7-0.8,1.5-1.4,2-3.3C1.6,12.2,0.1,10.2,0.1,8c0-3.9,4.4-7,9.8-7c5.4,0,9.8,3.1,9.8,7
		S15.3,15,9.9,15z"/>
</g>
</svg>
