<?xml version="1.0" encoding="utf-8"?>
<!-- Generator: Adobe Illustrator 19.1.0, SVG Export Plug-In . SVG Version: 6.00 Build 0)  -->
<svg version="1.1" id="Layer_1" xmlns="http://www.w3.org/2000/svg" xmlns:xlink="http://www.w3.org/1999/xlink" x="0px" y="0px"
	 viewBox="0 0 20 20" style="enable-background:new 0 0 20 20;" xml:space="preserve">
<style type="text/css">
	.st0{fill:#ECF0F1;}
</style>
<g>
	<path class="st0" d="M19.2,11.9c-1,4.3-4.6,7.3-9.1,7.3c-2.4,0-4.7-0.9-6.4-2.6l-1.6,1.6c-0.1,0.1-0.3,0.2-0.6,0.2
		c-0.4,0-0.8-0.4-0.8-0.8v-5.5c0-0.4,0.4-0.8,0.8-0.8H7c0.4,0,0.8,0.4,0.8,0.8c0,0.2-0.1,0.4-0.2,0.5l-1.7,1.7
		c1.1,1.1,2.7,1.7,4.3,1.7c2.2,0,4.2-1.1,5.3-3c0.3-0.5,0.4-0.9,0.6-1.4c0.1-0.2,0.2-0.3,0.4-0.3h2.3C19,11.4,19.2,11.6,19.2,11.9
		C19.2,11.8,19.2,11.8,19.2,11.9z M19.5,7.5c0,0.4-0.4,0.8-0.8,0.8h-5.5c-0.4,0-0.8-0.4-0.8-0.8c0-0.2,0.1-0.4,0.2-0.5l1.7-1.7
		c-1.2-1.1-2.7-1.7-4.3-1.7C8,3.6,6,4.7,4.8,6.5C4.5,7,4.4,7.5,4.2,8C4.1,8.2,4,8.3,3.8,8.3H1.4C1.2,8.3,1,8.1,1,7.9
		c0,0,0-0.1,0-0.1C2,3.4,5.6,0.4,10.1,0.4c2.4,0,4.7,1,6.5,2.6l1.6-1.6c0.1-0.1,0.3-0.2,0.6-0.2c0.4,0,0.8,0.4,0.8,0.8V7.5z"/>
</g>
</svg>
